<svg width="120" height="21" viewBox="0 0 120 21" fill="none" xmlns="http://www.w3.org/2000/svg">
<path d="M4.9027 20L6.30611 15.6882H13.1293L14.5327 20H18.8168L12.2983 1.09091H7.14631L0.618608 20H4.9027ZM7.32173 12.5675L9.64844 5.41193H9.79617L12.1229 12.5675H7.32173ZM21.4177 20H25.4156V13.2969H28.3332L31.9156 20H36.3289L32.3126 12.6506C34.4639 11.7273 35.6549 9.85298 35.6549 7.26776C35.6549 3.50994 33.1712 1.09091 28.8779 1.09091H21.4177V20ZM25.4156 10.0838V4.35938H28.1116C30.4198 4.35938 31.537 5.38423 31.537 7.26776C31.537 9.14204 30.4198 10.0838 28.13 10.0838H25.4156ZM49.063 6.52912H52.8947C52.8393 3.15909 50.0694 0.832386 45.8592 0.832386C41.7136 0.832386 38.6759 3.12216 38.6944 6.55682C38.6852 9.34517 40.6518 10.9425 43.8464 11.7088L45.9053 12.2259C47.9643 12.7244 49.1092 13.3153 49.1184 14.5895C49.1092 15.9744 47.7981 16.9162 45.7668 16.9162C43.6894 16.9162 42.1937 15.956 42.0644 14.0632H38.1958C38.2974 18.1534 41.2242 20.2678 45.813 20.2678C50.4295 20.2678 53.144 18.0611 53.1532 14.5987C53.144 11.4503 50.7711 9.77912 47.4842 9.04048L45.7853 8.63423C44.1418 8.25568 42.7661 7.64631 42.7938 6.28906C42.7938 5.07031 43.8741 4.17471 45.8315 4.17471C47.7427 4.17471 48.9153 5.04261 49.063 6.52912ZM60.0267 11.8011C60.0359 9.97301 61.1531 8.90199 62.7596 8.90199C64.3569 8.90199 65.2987 9.92685 65.2895 11.6719V20H69.2227V10.9702C69.2319 7.64631 67.2745 5.63352 64.32 5.63352C62.1687 5.63352 60.7284 6.64915 60.0821 8.32031H59.9159V1.09091H56.0934V20H60.0267V11.8011ZM76.6871 20.2678C78.783 20.2678 80.1402 19.3537 80.8327 18.0334H80.9435V20H84.6736V10.4347C84.6736 7.0554 81.8114 5.63352 78.6537 5.63352C75.256 5.63352 73.0216 7.25852 72.4768 9.84375L76.1146 10.1392C76.3824 9.19744 77.2226 8.50497 78.6352 8.50497C79.974 8.50497 80.7403 9.17898 80.7403 10.3423V10.3977C80.7403 11.3118 79.7709 11.4318 77.3057 11.6719C74.4989 11.9304 71.9783 12.8722 71.9783 16.0391C71.9783 18.8459 73.9818 20.2678 76.6871 20.2678ZM77.8135 17.5533C76.604 17.5533 75.7361 16.9901 75.7361 15.9098C75.7361 14.8018 76.6501 14.2571 78.0351 14.0632C78.8938 13.9432 80.2972 13.7401 80.768 13.4261V14.9311C80.768 16.4176 79.5401 17.5533 77.8135 17.5533ZM88.0501 20H91.9833V15.4943L93.0451 14.2848L96.9137 20H101.521L95.9904 11.9581L101.253 5.81818H96.7383L92.1957 11.201H91.9833V1.09091H88.0501V20ZM103.508 20H107.441V5.81818H103.508V20ZM105.484 3.99006C106.656 3.99006 107.617 3.09446 107.617 1.99574C107.617 0.90625 106.656 0.0106524 105.484 0.0106524C104.32 0.0106524 103.36 0.90625 103.36 1.99574C103.36 3.09446 104.32 3.99006 105.484 3.99006ZM110.917 20H114.85V11.9766C114.85 10.2315 116.124 9.03125 117.86 9.03125C118.405 9.03125 119.153 9.12358 119.522 9.24361V5.75355C119.171 5.67045 118.682 5.61506 118.285 5.61506C116.697 5.61506 115.395 6.53835 114.878 8.29261H114.73V5.81818H110.917V20Z" fill="#F2994A"/>
</svg>
